<?xml version="1.0" encoding="utf-8"?>
<!-- Generator: Adobe Illustrator 21.0.0, SVG Export Plug-In . SVG Version: 6.00 Build 0)  -->
<svg version="1.1" id="Layer_1" xmlns="http://www.w3.org/2000/svg" xmlns:xlink="http://www.w3.org/1999/xlink" x="0px" y="0px"
	 viewBox="0 0 144 100" style="enable-background:new 0 0 144 100;" xml:space="preserve">
<style type="text/css">
	.st0{fill:#FFFFFF;}
	.st1{fill:#3E4BCC;}
	.st2{fill:none;stroke:#3E4BCC;stroke-width:8;stroke-miterlimit:10;}
</style>
<g>
	<path class="st0" d="M12.1,98c-5.5,0-10-4.5-10-10V12c0-5.5,4.5-10,10-10h120c5.5,0,10,4.5,10,10v76c0,5.5-4.5,10-10,10H12.1z"/>
	<path class="st1" d="M132.1,4c4.4,0,8,3.6,8,8v76c0,4.4-3.6,8-8,8h-120c-4.4,0-8-3.6-8-8V12c0-4.4,3.6-8,8-8H132.1 M132.1,0h-120
		c-6.6,0-12,5.4-12,12v76c0,6.6,5.4,12,12,12h120c6.6,0,12-5.4,12-12V12C144.1,5.4,138.7,0,132.1,0L132.1,0z"/>
</g>
<g>
	<line class="st2" x1="122.6" y1="67" x2="21.6" y2="67"/>
</g>
<g>
	<line class="st2" x1="122.6" y1="50" x2="21.6" y2="50"/>
</g>
<g>
	<line class="st2" x1="122.6" y1="33" x2="21.6" y2="33"/>
</g>
</svg>
